#N canvas 720 115 756 268 10;
#X declare -lib mrpeach;
#X obj 409 228 import mrpeach;
#X obj 69 215 mrpeach/slipdec 65536;
#X obj 95 47 mrpeach/slipenc 65536;
#X obj 303 65 loadbang;
#X obj 299 22 bng 15 250 50 0 empty empty empty 17 7 0 10 -262144 -1
-1;
#X obj 76 16 inlet;
#X obj 74 240 outlet;
#X msg 296 142 baud 115200;
#X obj 261 46 inlet;
#X msg 132 95 devicename /dev/tty.usbserial-A5002rKU \, pollintervall
1;
#X obj 57 157 bng 15 250 50 0 empty empty empty 17 7 0 10 -262144 -1
-1;
#X obj 99 120 comport;
#X obj 301 199 print errors;
#X msg 390 42;
#X obj 226 19 bng 15 250 50 0 empty empty empty 17 7 0 10 -262144 -1
-1;
#X obj 240 230 outlet raw;
#X connect 1 0 6 0;
#X connect 2 0 11 0;
#X connect 3 0 9 0;
#X connect 3 0 7 0;
#X connect 4 0 3 0;
#X connect 5 0 2 0;
#X connect 7 0 11 0;
#X connect 8 0 11 0;
#X connect 9 0 11 0;
#X connect 11 0 10 0;
#X connect 11 0 1 0;
#X connect 11 0 15 0;
#X connect 11 1 12 0;
#X connect 14 0 11 0;
