#N canvas 496 411 650 385 10;
#X declare -lib tof;
#X msg 119 143 close;
#X obj 154 236 unpack f f;
#X floatatom 154 262 5 0 0 0 - - -, f 5;
#X floatatom 211 263 5 0 0 0 - - -, f 5;
#X obj 154 173 comport 1 115200;
#X obj 437 72 declare -lib tof;
#X obj 154 194 from_ascii_code 10;
#X floatatom 165 124 5 0 0 0 - - -, f 5;
#X msg 165 144 open \$1;
#X text 267 173 <- port # & depending on Serial.begin(x) \;;
#X obj 154 215 route value;
#X connect 0 0 4 0;
#X connect 1 0 2 0;
#X connect 1 1 3 0;
#X connect 4 0 6 0;
#X connect 6 0 10 0;
#X connect 7 0 8 0;
#X connect 8 0 4 0;
#X connect 10 0 1 0;
