#N canvas 341 245 928 563 10;
#X obj 297 407 print;
#X obj 654 98 tgl 15 0 empty empty empty 17 7 0 10 -262144 -1 -1 0
1;
#X msg 78 121 devices;
#X obj 542 237 tof/to_ascii_code 10;
#X obj 312 351 tof/from_ascii_code 10;
#X text 76 91 Step 1: list com devices by sending "devices" to [comport]
;
#X text 458 354 Receive stuff;
#X text 681 236 Send stuff;
#X msg 135 157 open 3;
#X obj 77 267 comport 1 57600;
#X text 187 158 Step 2: open the proper serial port;
#X msg 152 210 close;
#X text 196 209 Close serial when you need to reprogram the Arduino
;
#X text 187 178 Please note that you must close Arduino's Serial Monitor
;
#X floatatom 705 97 5 0 0 0 - - -, f 5;
#X obj 359 403 route a0 ms;
#X floatatom 358 446 5 0 0 0 - - -, f 5;
#X floatatom 412 445 5 0 0 0 - - -, f 5;
#X msg 654 130 d \$1;
#X msg 706 132 ms \$1;
#X floatatom 753 94 5 0 0 0 - - -, f 5;
#X msg 754 129 a0 \$1;
#X connect 1 0 18 0;
#X connect 2 0 9 0;
#X connect 3 0 9 0;
#X connect 4 0 0 0;
#X connect 4 0 15 0;
#X connect 8 0 9 0;
#X connect 9 0 4 0;
#X connect 11 0 9 0;
#X connect 14 0 19 0;
#X connect 15 0 16 0;
#X connect 15 1 17 0;
#X connect 18 0 3 0;
#X connect 19 0 3 0;
#X connect 20 0 21 0;
#X connect 21 0 3 0;
